<svg width="220" height="48" viewBox="0 0 220 48" fill="none" xmlns="http://www.w3.org/2000/svg">
<path d="M81.91 21.72C81.91 22.94 81.63 24.06 81.07 25.08C80.51 26.08 79.65 26.89 78.49 27.51C77.33 28.13 75.89 28.44 74.17 28.44H70.99V36H65.86V14.94H74.17C75.85 14.94 77.27 15.23 78.43 15.81C79.59 16.39 80.46 17.19 81.04 18.21C81.62 19.23 81.91 20.4 81.91 21.72ZM73.78 24.36C74.76 24.36 75.49 24.13 75.97 23.67C76.45 23.21 76.69 22.56 76.69 21.72C76.69 20.88 76.45 20.23 75.97 19.77C75.49 19.31 74.76 19.08 73.78 19.08H70.99V24.36H73.78ZM89.7107 22.05C90.3107 21.13 91.0607 20.41 91.9607 19.89C92.8607 19.35 93.8607 19.08 94.9607 19.08V24.51H93.5507C92.2707 24.51 91.3107 24.79 90.6707 25.35C90.0307 25.89 89.7107 26.85 89.7107 28.23V36H84.5807V19.26H89.7107V22.05ZM105.033 36.24C103.393 36.24 101.913 35.89 100.593 35.19C99.2927 34.49 98.2627 33.49 97.5027 32.19C96.7627 30.89 96.3927 29.37 96.3927 27.63C96.3927 25.91 96.7727 24.4 97.5327 23.1C98.2927 21.78 99.3327 20.77 100.653 20.07C101.973 19.37 103.453 19.02 105.093 19.02C106.733 19.02 108.213 19.37 109.533 20.07C110.853 20.77 111.893 21.78 112.653 23.1C113.413 24.4 113.793 25.91 113.793 27.63C113.793 29.35 113.403 30.87 112.623 32.19C111.863 33.49 110.813 34.49 109.473 35.19C108.153 35.89 106.673 36.24 105.033 36.24ZM105.033 31.8C106.013 31.8 106.843 31.44 107.523 30.72C108.223 30 108.573 28.97 108.573 27.63C108.573 26.29 108.233 25.26 107.553 24.54C106.893 23.82 106.073 23.46 105.093 23.46C104.093 23.46 103.263 23.82 102.603 24.54C101.943 25.24 101.613 26.27 101.613 27.63C101.613 28.97 101.933 30 102.573 30.72C103.233 31.44 104.053 31.8 105.033 31.8ZM115.494 27.6C115.494 25.88 115.814 24.37 116.454 23.07C117.114 21.77 118.004 20.77 119.124 20.07C120.244 19.37 121.494 19.02 122.874 19.02C123.974 19.02 124.974 19.25 125.874 19.71C126.794 20.17 127.514 20.79 128.034 21.57V13.8H133.164V36H128.034V33.6C127.554 34.4 126.864 35.04 125.964 35.52C125.084 36 124.054 36.24 122.874 36.24C121.494 36.24 120.244 35.89 119.124 35.19C118.004 34.47 117.114 33.46 116.454 32.16C115.814 30.84 115.494 29.32 115.494 27.6ZM128.034 27.63C128.034 26.35 127.674 25.34 126.954 24.6C126.254 23.86 125.394 23.49 124.374 23.49C123.354 23.49 122.484 23.86 121.764 24.6C121.064 25.32 120.714 26.32 120.714 27.6C120.714 28.88 121.064 29.9 121.764 30.66C122.484 31.4 123.354 31.77 124.374 31.77C125.394 31.77 126.254 31.4 126.954 30.66C127.674 29.92 128.034 28.91 128.034 27.63ZM153.406 19.26V36H148.276V33.72C147.756 34.46 147.046 35.06 146.146 35.52C145.266 35.96 144.286 36.18 143.206 36.18C141.926 36.18 140.796 35.9 139.816 35.34C138.836 34.76 138.076 33.93 137.536 32.85C136.996 31.77 136.726 30.5 136.726 29.04V19.26H141.826V28.35C141.826 29.47 142.116 30.34 142.696 30.96C143.276 31.58 144.056 31.89 145.036 31.89C146.036 31.89 146.826 31.58 147.406 30.96C147.986 30.34 148.276 29.47 148.276 28.35V19.26H153.406ZM156.07 27.63C156.07 25.89 156.42 24.37 157.12 23.07C157.84 21.77 158.83 20.77 160.09 20.07C161.37 19.37 162.83 19.02 164.47 19.02C166.57 19.02 168.32 19.57 169.72 20.67C171.14 21.77 172.07 23.32 172.51 25.32H167.05C166.59 24.04 165.7 23.4 164.38 23.4C163.44 23.4 162.69 23.77 162.13 24.51C161.57 25.23 161.29 26.27 161.29 27.63C161.29 28.99 161.57 30.04 162.13 30.78C162.69 31.5 163.44 31.86 164.38 31.86C165.7 31.86 166.59 31.22 167.05 29.94H172.51C172.07 31.9 171.14 33.44 169.72 34.56C168.3 35.68 166.55 36.24 164.47 36.24C162.83 36.24 161.37 35.89 160.09 35.19C158.83 34.49 157.84 33.49 157.12 32.19C156.42 30.89 156.07 29.37 156.07 27.63ZM184.585 31.65V36H181.975C180.115 36 178.665 35.55 177.625 34.65C176.585 33.73 176.065 32.24 176.065 30.18V23.52H174.025V19.26H176.065V15.18H181.195V19.26H184.555V23.52H181.195V30.24C181.195 30.74 181.315 31.1 181.555 31.32C181.795 31.54 182.195 31.65 182.755 31.65H184.585Z" fill="#173A56"/>
<path fill-rule="evenodd" clip-rule="evenodd" d="M21.1331 41.4587C19.4099 41.4587 18 40.0488 18 38.3256L18 27.372L25.8863 27.372L25.8863 27.3598L30.6263 27.3598C31.8482 27.3285 32.8821 26.2633 32.8821 25.01C32.8821 23.7255 31.8168 22.6602 30.5323 22.6602L24.2661 22.6602L24.2661 22.6622L18 22.6622L18 19.5272C18 17.804 19.4099 16.3941 21.1331 16.3941L30.5323 16.3941C32.9134 16.3941 34.9499 17.24 36.6104 18.9319C38.3023 20.5924 39.1482 22.6289 39.1482 25.01C39.1482 27.3598 38.3336 29.3963 36.6731 31.0569C35.0126 32.7174 33.0074 33.5947 30.6576 33.626L24.2661 33.626L24.2661 38.3256C24.2661 40.0488 22.8563 41.4587 21.1331 41.4587Z" fill="#02BC6B"/>
<path fill-rule="evenodd" clip-rule="evenodd" d="M43.0975 12.7578C46.5589 16.1199 48.3031 20.3073 48.3031 25.0672C48.3031 29.7473 46.6319 33.9307 43.2239 37.3034L38.3852 32.7508C40.5047 30.6533 41.545 28.128 41.545 25.0672C41.545 21.9832 40.4734 19.4619 38.3031 17.3538L43.0975 12.7578Z" fill="#02897A"/>
<path fill-rule="evenodd" clip-rule="evenodd" d="M50.5055 7C55.4911 11.9778 57.9999 18.1499 57.9999 25.2338C57.9999 32.2071 55.5922 38.3753 50.6884 43.3638L46.0186 38.8009C49.6715 35.085 51.4614 30.5781 51.4614 25.2338C51.4614 19.8358 49.6111 15.3328 45.8787 11.6062L50.5055 7Z" fill="#035B81"/>
<path fill-rule="evenodd" clip-rule="evenodd" d="M18 33.6524L24.2661 33.6524L24.2661 38.326C24.2661 40.0492 22.8563 41.4591 21.1331 41.4591C19.4099 41.4591 18 40.0492 18 38.326L18 33.6524Z" fill="#028E37"/>
</svg>
